
<svg width="149px" height="38px" viewBox="0 0 149 38" version="1.1" xmlns="http://www.w3.org/2000/svg" xmlns:xlink="http://www.w3.org/1999/xlink">
    <!-- Generator: Sketch 48.2 (47327) - http://www.bohemiancoding.com/sketch -->
    <desc>Created with Sketch.</desc>
    <defs>
        <polygon id="path-1" points="0 2.31707317e-05 37.9999893 2.31707317e-05 37.9999893 38 0 38"></polygon>
        <polygon id="path-3" points="0 0.112920238 22.2995929 0.112920238 22.2995929 21.8690476 0 21.8690476"></polygon>
        <polygon id="path-5" points="0.018097619 0.112933333 21.0549429 0.112933333 21.0549429 21.8690476 0.018097619 21.8690476"></polygon>
        <polygon id="path-7" points="0.0515952381 0.112933333 21.0884405 0.112933333 21.0884405 21.8690476 0.0515952381 21.8690476"></polygon>
        <polygon id="path-9" points="0.100492857 0.112920238 22.4001119 0.112920238 22.4001119 21.8690476 0.100492857 21.8690476"></polygon>
    </defs>
    <g id="Web-Laptop" stroke="none" stroke-width="1" fill="none" fill-rule="evenodd">
        <g id="Home---Applications" transform="translate(-42.000000, -51.000000)">
            <g id="logo_@" transform="translate(42.000000, 51.000000)">
                <g id="Page-1">
                    <g id="Group-3">
                        <mask id="mask-2" fill="white">
                            <use xlink:href="#path-1"></use>
                        </mask>
                        <g id="Clip-2"></g>
                        <path d="M-1.07344633e-05,32.7001817 L-1.07344633e-05,5.29986463 C-1.07344633e-05,2.37282195 2.19851469,2.31707317e-05 4.91057684,2.31707317e-05 L33.0894017,2.31707317e-05 C35.8014638,2.31707317e-05 37.9999893,2.37282195 37.9999893,5.29986463 L37.9999893,32.7001817 C37.9999893,35.6272244 35.8014638,38.0000232 33.0894017,38.0000232 L4.91057684,38.0000232 C2.19851469,38.0000232 -1.07344633e-05,35.6272244 -1.07344633e-05,32.7001817" id="Fill-1" fill="#002827" mask="url(#mask-2)"></path>
                    </g>
                    <path d="M13.0336485,22.3104664 C13.0336485,24.4045629 12.5283601,25.8563981 11.5176722,26.6660864 C10.5072062,27.4666257 8.70692883,27.8666667 6.11706203,27.8666667 L4.75,27.8666667 L4.75,25.1025188 C4.75,22.9526133 5.26903783,21.3798966 6.30655907,20.3839114 C7.39852329,19.3417235 9.21665258,18.8203437 11.7612796,18.8203437 L13.0336485,18.8203437 L13.0336485,22.3104664 Z M13.0336485,17.3685085 L11.7612796,17.3685085 C9.18072687,17.3685085 7.36237581,16.9218076 6.30655907,16.0282913 C5.26903783,15.1348895 4.75,13.6365086 4.75,11.5331487 L4.75,8.89457118 L6.11706203,8.89457118 C8.76115004,8.89457118 10.5613165,9.22507955 11.5176722,9.88575321 C12.5283601,10.5932012 13.0336485,11.9752752 13.0336485,14.031975 L13.0336485,17.3685085 Z M15.280447,27.8387622 L22.5625,27.8387622 L22.5625,8.86666667 L15.280447,8.86666667 L15.280447,27.8387622 Z" id="Fill-4" fill="#FFFFFF"></path>
                    <path d="M24.966403,18.8203437 L26.238764,18.8203437 C28.7833752,18.8203437 30.6014932,19.3417235 31.6934506,20.3839114 C32.7309654,21.3798966 33.25,22.9526133 33.25,25.1025188 L33.25,27.8666667 L31.8829465,27.8666667 C29.2930958,27.8666667 27.4928297,27.4666257 26.4823699,26.6660864 C25.4716884,25.8562837 24.966403,24.4044485 24.966403,22.3104664 L24.966403,18.8203437 Z M24.966403,14.031975 C24.966403,11.9752752 25.4716884,10.5932012 26.4823699,9.88575321 C27.4387197,9.22507955 29.2388749,8.89457118 31.8829465,8.89457118 L33.25,8.89457118 L33.25,11.5330344 C33.25,13.6365086 32.7309654,15.1347751 31.6934506,16.0282913 C30.6376404,16.9216932 28.8193007,17.3685085 26.238764,17.3685085 L24.966403,17.3685085 L24.966403,14.031975 Z M15.4375,27.8387622 L22.7195077,27.8387622 L22.7195077,8.86666667 L15.4375,8.86666667 L15.4375,27.8387622 Z" id="Fill-6" fill="#FFFFFF"></path>
                </g>
            </g>
            <g id="Group-10" transform="translate(95.000000, 59.000000)">
                <g id="Page-1">
                    <g id="Group-3" transform="translate(0.000000, 0.018071)">
                        <mask id="mask-4" fill="white">
                            <use xlink:href="#path-3"></use>
                        </mask>
                        <g id="Clip-2"></g>
                        <path d="M12.4526286,0.112920238 L13.6994262,0.112920238 C17.6531405,0.112920238 20.2639381,1.87684881 21.5323429,5.40405119 C22.0438429,6.8535631 22.2995929,8.52124167 22.2995929,10.4074798 C22.2995929,13.5833369 21.6867357,16.1997655 20.4612833,18.2563726 C19.0119024,20.6648488 16.75795,21.8690869 13.6994262,21.8690869 L12.4526286,21.8690869 L12.4526286,0.112920238 Z M8.60014048,21.8690869 C4.66777143,21.8690869 2.06208095,19.8763845 0.783330952,15.890456 C0.260961905,14.270706 -2.61904762e-05,12.4431345 -2.61904762e-05,10.4074798 C-2.61904762e-05,6.26205119 1.15091429,3.33670595 3.45279524,1.631575 C4.80605714,0.619182143 6.52205714,0.112920238 8.60014048,0.112920238 L9.84706905,0.112920238 L9.84706905,21.8690869 L8.60014048,21.8690869 Z" id="Fill-1" fill="#002827" mask="url(#mask-4)"></path>
                    </g>
                    <g id="Group-6" transform="translate(25.142857, 0.018071)">
                        <mask id="mask-6" fill="white">
                            <use xlink:href="#path-5"></use>
                        </mask>
                        <g id="Clip-5"></g>
                        <path d="M11.2718833,11.5105048 L12.7745619,11.5105048 C15.7797881,11.5105048 17.9270143,12.1075167 19.2166333,13.3008857 C20.4419548,14.44135 21.0549429,16.2422071 21.0549429,18.703981 L21.0549429,21.8691 L19.440431,21.8691 C16.3817762,21.8691 14.2556333,21.4110286 13.0622643,20.4943619 C11.8686333,19.5670881 11.2718833,17.9046476 11.2718833,15.5069095 L11.2718833,11.5105048 Z M11.2718833,6.02752857 C11.2718833,3.67248095 11.8686333,2.08992143 13.0622643,1.27985 C14.1917286,0.523338095 16.3177405,0.144885714 19.440431,0.144885714 L21.0549429,0.144885714 L21.0549429,3.1660881 C21.0549429,5.57469524 20.4419548,7.29030238 19.2166333,8.31343333 C17.9697048,9.33643333 15.8222167,9.84806429 12.7745619,9.84806429 L11.2718833,9.84806429 L11.2718833,6.02752857 Z M0.018097619,21.8371476 L8.61826429,21.8371476 L8.61826429,0.112933333 L0.018097619,0.112933333 L0.018097619,21.8371476 Z" id="Fill-4" fill="#002827" mask="url(#mask-6)"></path>
                    </g>
                    <g id="Group-9" transform="translate(49.630952, 0.018071)">
                        <mask id="mask-8" fill="white">
                            <use xlink:href="#path-7"></use>
                        </mask>
                        <g id="Clip-8"></g>
                        <path d="M11.305381,11.5105048 L12.8080595,11.5105048 C15.8132857,11.5105048 17.9605119,12.1075167 19.250131,13.3008857 C20.4754524,14.44135 21.0884405,16.2422071 21.0884405,18.703981 L21.0884405,21.8691 L19.4739286,21.8691 C16.4152738,21.8691 14.289131,21.4110286 13.0957619,20.4943619 C11.902131,19.5670881 11.305381,17.9046476 11.305381,15.5069095 L11.305381,11.5105048 Z M11.305381,6.02752857 C11.305381,3.67248095 11.902131,2.08992143 13.0957619,1.27985 C14.2252262,0.523338095 16.3512381,0.144885714 19.4739286,0.144885714 L21.0884405,0.144885714 L21.0884405,3.1660881 C21.0884405,5.57469524 20.4754524,7.29030238 19.250131,8.31343333 C18.0032024,9.33643333 15.8557143,9.84806429 12.8080595,9.84806429 L11.305381,9.84806429 L11.305381,6.02752857 Z M0.0515952381,21.8371476 L8.6517619,21.8371476 L8.6517619,0.112933333 L0.0515952381,0.112933333 L0.0515952381,21.8371476 Z" id="Fill-7" fill="#002827" mask="url(#mask-8)"></path>
                    </g>
                    <g id="Group-12" transform="translate(73.464286, 0.018071)">
                        <mask id="mask-10" fill="white">
                            <use xlink:href="#path-9"></use>
                        </mask>
                        <g id="Clip-11"></g>
                        <path d="M12.5531476,0.112920238 L13.7999452,0.112920238 C17.7536595,0.112920238 20.3644571,1.87684881 21.6328619,5.40405119 C22.1443619,6.8535631 22.4001119,8.52124167 22.4001119,10.4074798 C22.4001119,13.5833369 21.7872548,16.1997655 20.5618024,18.2563726 C19.1124214,20.6648488 16.858469,21.8690869 13.7999452,21.8690869 L12.5531476,21.8690869 L12.5531476,0.112920238 Z M8.70065952,21.8690869 C4.76829048,21.8690869 2.1626,19.8763845 0.88385,15.890456 C0.361480952,14.270706 0.100492857,12.4431345 0.100492857,10.4074798 C0.100492857,6.26205119 1.25143333,3.33670595 3.55331429,1.631575 C4.90657619,0.619182143 6.62257619,0.112920238 8.70065952,0.112920238 L9.9475881,0.112920238 L9.9475881,21.8690869 L8.70065952,21.8690869 Z" id="Fill-10" fill="#002827" mask="url(#mask-10)"></path>
                    </g>
                </g>
            </g>
        </g>
    </g>
</svg>
